<svg width="200" height="200" viewBox="0 0 200 200" fill="none" xmlns="http://www.w3.org/2000/svg">
<rect width="200" height="200" rx="100" fill="#375266"/>
<g filter="url(#filter0_d_1_7)">
<path d="M130.299 87.7072C166.392 136.08 48.1471 152.728 48.1471 152.728C48.1471 152.728 52.0309 103.811 67.7126 85.8498C80.8084 70.8507 106.667 87.5355 102.472 76.8422C93.2559 53.3443 120.861 64.4969 172.603 44.6744C172.603 44.6744 121.083 64.2093 130.299 87.7072Z" fill="url(#paint0_linear_1_7)" shape-rendering="crispEdges"/>
<path d="M129.834 87.8898L129.858 87.9524L129.898 88.0062C134.368 93.9962 136.417 99.4527 136.632 104.411C136.847 109.365 135.235 113.875 132.283 117.982C126.36 126.225 115.077 132.797 102.569 137.895C90.0815 142.984 76.4594 146.569 65.9514 148.883C60.6992 150.039 56.2286 150.877 53.0719 151.426C51.4935 151.7 50.2438 151.902 49.3892 152.035C49.1192 152.077 48.8886 152.113 48.6995 152.141C48.7317 151.783 48.7787 151.278 48.8422 150.641C48.9786 149.272 49.1911 147.295 49.4951 144.866C50.1032 140.008 51.0768 133.345 52.5393 126.123C54.002 118.9 55.9519 111.128 58.51 104.047C61.0708 96.9586 64.2283 90.6008 68.0892 86.1787C74.4489 78.8948 83.9289 79.2668 91.5134 80.2274C92.4566 80.3468 93.3668 80.4747 94.2362 80.5971L94.282 80.6036C95.1335 80.7234 95.9471 80.838 96.7085 80.9328C98.2492 81.1246 99.6176 81.2417 100.695 81.1498C101.75 81.0598 102.698 80.7547 103.157 79.927C103.605 79.1204 103.471 78.019 102.938 76.6597C100.645 70.815 100.737 67.3494 102.653 65.0069C103.629 63.8132 105.119 62.8542 107.157 62.0279C109.193 61.2021 111.737 60.5238 114.783 59.8689C117.425 59.3008 120.432 58.7533 123.785 58.1426C133.504 56.3727 146.138 54.0721 161.255 49.2031C157.134 51.2561 152.338 53.8817 147.718 56.9631C141.832 60.8877 136.196 65.5745 132.609 70.7867C129.014 76.0111 127.45 81.8132 129.834 87.8898Z" stroke="white" shape-rendering="crispEdges"/>
</g>
<defs>
<filter id="filter0_d_1_7" x="42.1471" y="38.6744" width="142.456" height="126.054" filterUnits="userSpaceOnUse" color-interpolation-filters="sRGB">
<feFlood flood-opacity="0" result="BackgroundImageFix"/>
<feColorMatrix in="SourceAlpha" type="matrix" values="0 0 0 0 0 0 0 0 0 0 0 0 0 0 0 0 0 0 127 0" result="hardAlpha"/>
<feOffset dx="3" dy="3"/>
<feGaussianBlur stdDeviation="4.5"/>
<feComposite in2="hardAlpha" operator="out"/>
<feColorMatrix type="matrix" values="0 0 0 0 0 0 0 0 0 0 0 0 0 0 0 0 0 0 0.25 0"/>
<feBlend mode="normal" in2="BackgroundImageFix" result="effect1_dropShadow_1_7"/>
<feBlend mode="normal" in="SourceGraphic" in2="effect1_dropShadow_1_7" result="shape"/>
</filter>
<linearGradient id="paint0_linear_1_7" x1="170.147" y1="65.7192" x2="56.8008" y2="144.464" gradientUnits="userSpaceOnUse">
<stop stop-color="#FFB800"/>
<stop offset="1" stop-color="#FF0000" stop-opacity="0.25"/>
</linearGradient>
</defs>
</svg>
